<?xml version="1.0" encoding="UTF-8"?>
<svg id="Capa_1" data-name="Capa 1" xmlns="http://www.w3.org/2000/svg" viewBox="0 0 493.05 832.38">
  <defs>
    <style>
      .cls-1 {
        fill: #971639;
        stroke-width: 0px;
      }
    </style>
  </defs>
  <path class="cls-1" d="M310.39,831.88c-3.12.7-5.17.04-7.25-1.12-16.13-9.01-31.67-18.95-46.94-29.31-4.9-3.32-5.4-5.14-3.05-10.52,5.62-12.86,11.33-25.67,16.97-38.52.66-1.5,1.3-3.05,1.64-4.64.29-1.37-.62-2.59-1.76-3.09-1.64-.73-1.76,1.08-2.14,1.93-1.79,4.05-3.38,8.18-5.11,12.25-5.25,12.33-10.42,24.69-15.9,36.92-1.36,3.04-.76,4.33,2.02,5.85,16.2,8.88,31.3,19.54,47.05,29.15.39.24.7.6,1.23,1.06-3.06.96-5.35-.04-7.65-1.49-13.58-8.55-27.2-17.05-40.81-25.56-.96-.6-1.94-1.19-2.9-1.79-1.15-.71-2.44-1.24-3.31.19-.92,1.51.71,1.97,1.54,2.5,8.86,5.62,17.77,11.16,26.64,16.76,4.68,2.96,9.31,6.02,14.25,9.22-2.77,1.09-4.84.4-6.91-.91-12.26-7.8-24.55-15.56-36.82-23.35-1.83-1.16-4.54-2.29-.56-4.3.34-.17.39-.89.59-1.36,7.74-18.27,15.51-36.54,23.19-54.84.97-2.32,2.68-4.79.12-7.52-1.35.76-1.66,2.18-2.15,3.36-7.46,18.4-15.38,36.59-23.47,54.72-.72,1.61-1.22,3.32-1.76,5-.26.8-.11,1.94-1.49,1.61-1.11-.27-1.85-.94-1.48-2.18.36-1.21.81-2.39,1.3-3.55,6.82-16.33,13.66-32.65,20.48-48.98,1.01-2.43,2.08-4.84,2.5-7.64-1.26-.21-1.69.64-2.11,1.27-1.82,2.73-3.85,5.36-5.32,8.28-7.44,14.79-14.8,29.63-22.02,44.52-2.34,4.83-1.99,4.75,2.33,7.72,13.53,9.3,26.75,19.05,40.52,28.15-4.69.5-9.05,1.22-13.44-2.01-11.91-8.75-24.13-17.1-36.32-25.47-2.52-1.73-2.8-3.32-1.37-5.91,6.88-12.52,13.68-25.08,20.42-37.68,3.91-7.31,4.17-5.94-2.25-10.68-9.56-7.05-19.26-13.92-28.91-20.85-4.93-3.53-5.24-4.39-3.56-10.12,3.1-10.55,6.08-21.14,9.33-31.64,1.38-4.46.47-7.88-3.14-10.75-18.88-15.04-36.83-31.22-56.22-45.62-7.56-5.61-16.39-8.34-25.44-10.39-14.91-3.39-29.85-6.66-44.74-10.12-2.65-.62-4.6-.21-6.41,1.86-1.91,2.19-4.07,4.16-6.58,5.69-1.1.67-2.38,1.28-3.53.34-1.38-1.13-.28-2.42.34-3.36,4.29-6.55,8.73-13.01,13.05-19.55,4.87-7.39,9.68-14.81,14.47-22.26.8-1.24,1.92-2.36,2.03-4-1.55-.62-2.75.38-3.97.86-17.77,6.96-35.51,13.99-53.26,20.99-3.29,1.3-6.6,2.56-9.92,3.77-.77.28-1.66.99-2.46.2-.77-.77-.15-1.7.11-2.49,3.48-10.55,4.79-21.77,9.84-31.82,1.07-2.12.74-4.14-.11-6.2-2.45-5.96-4.49-12.13-7.38-17.87-4.37-8.66-4.7-17.56-3.62-26.93,5.26-45.72,11.39-91.32,17.51-136.93,2.64-19.67,4.57-39.43,6.81-59.15.12-1.1.12-2.21.17-3.4-2.08-.11-3.29,1.13-4.47,2.14-5.05,4.31-10.73,7.59-16.79,10.2-4.37,1.88-6.89,4.98-8.4,9.55-6.94,21-14.56,41.78-21.08,62.92-.18.58-.54,1.09-.92,1.84-1.92-1.36-1.8-3-1.3-4.76,6.48-22.73,12.96-45.46,19.42-68.19.41-1.44,1.31-2.32,2.56-3.1,15.02-9.35,30.31-18.3,44.92-28.26,12.85-8.76,23.89-19.86,35.5-30.2,11.5-10.25,21.99-21.27,28.63-35.44.58-1.23,1.42-2.5,2.48-3.31,4.08-3.12,4.55-6.93,3.47-11.75-1.66-7.39-3.42-14.79-4.04-22.38-.15-1.83-1.22-3-2.43-4.12-3.97-3.65-7.03-7.96-9.22-12.86-5.24-11.71-9.31-23.8-10.79-36.59-.69-5.97-.26-11.92,3.36-17.12,1.04-1.49.9-2.94.62-4.66-1.87-11.34-4.49-22.57-5.06-34.11-.38-7.62,1.01-14.8,4.24-21.72,3.69-7.9,7.24-15.87,10.68-23.89,2.37-5.52,6.41-8.75,12.31-9.32,4.39-.43,7.27-2.52,8.79-6.57,2.24-5.97,6.7-9.01,12.72-10.72,11.08-3.15,22.27-5.71,33.66-7.4,4.41-.66,8.82-.32,13.22.31,13.63,1.96,27.3,3.62,40.35,8.48,15.2,5.66,26.89,15.39,34.75,29.51,5.11,9.17,8.95,18.95,12.74,28.75,3.62,9.34,3.07,18.9,2.16,28.46-1.11,11.61-1.21,23.23-1.29,34.86-.03,4.7-.25,9.38-1.36,13.94-2.36,9.72-2.1,19.58-1.56,29.43.37,6.83.38,13.65.36,20.48-.03,9.85-2.47,19.21-7.71,27.41-8.7,13.6-14.89,28.42-22.19,42.7-1.27,2.48-1.05,3.96,1.43,5.57,25.29,16.51,50.5,33.15,75.8,49.65,2.18,1.42,3.44,3.02,4.12,5.51,6.01,22.09,10.93,44.43,16.1,66.72,7.25,31.28,14.22,62.62,21.33,93.92,1.37,6.04,2.93,12.04,4.23,18.09.62,2.86,2.17,4.38,5,4.89,5.35.96,10.69,1.97,16.01,3.05,2.21.45,3.93-.1,5.37-1.84,3.54-4.29,7.23-8.45,10.69-12.8,4.75-5.98,6.23-6.46,13.17-3.59.82.34,1.64.67,2.46,1q6.07,2.46,8.29-3.9c1.03-2.99,2.03-5.99,2.97-9,.86-2.74,2.17-5.48-.29-8.18-.73-.8-.18-1.94.08-2.91,5.37-20.02,10.11-40.21,16.35-59.99,2.14-6.79,3.88-7.84,10.86-6.07,4.69,1.19,9.08,3.19,12.95,6.12,4.85,3.66,5.25,5.5,3.79,11.45-4.21,17.09-9.66,33.8-16.03,50.18-3.3,8.48-3.74,17.52-6.31,26.1-.51,1.71.33,2.36,1.98,2.9,7.35,2.42,11.03,8.5,13.84,15.03,1.31,3.04-.45,6.21-1.99,8.99-1.63,2.95-2.19,5.73-.43,8.94,1.48,2.71.85,5.66-.2,8.47-2.38,6.38-5.28,12.6-5.15,19.67.03,1.43-.72,2.94-1.34,4.32-2.39,5.32-4.37,10.74-5.18,16.57-.55,3.93-2.56,6.42-7.04,6.33-2.86-.06-5.74.45-9.27.76,3.11,3.31,6.53,5.32,9.71,7.64,1.33.97,2.74,1.82,4,2.87,1.19,1,2.32,2.3,1.1,3.89-1.11,1.45-2.54.67-3.74-.06-3.67-2.23-7.31-4.52-10.98-6.76-3.24-1.97-6.5-3.91-9.77-5.83-4.44-2.62-6.24-2.13-8.17,2.54-2.57,6.25-6.09,11.92-10.09,17.32-1.57,2.11-2.93,4.4-5.75,6.71-.54-5.36-1.09-10.13-1.49-14.92-.39-4.65-.32-4.64-4.56-3.31-18.12,5.7-36.64,7.04-55.46,5.11-.75-.08-1.51-.19-2.26-.26-5.1-.49-5.06-.49-4.36,4.66.4,2.88.61,5.78.95,8.67.38,3.2,2.27,4.32,5.32,3.71.99-.2,1.97-.44,2.97-.62,5.26-.95,7.24.68,7.45,6.09q.18,4.61,4.46,2.71c6.81-3.03,10.29-.98,10.39,6.42.07,5.39.46,5.57,5.32,3.68,1.27-.49,2.71-.68,4.08-.72,4.29-.12,6.61,2.19,6.51,6.5-.04,1.89-.38,3.77-.58,5.65-.24,2.33.66,2.75,2.61,1.6,1.41-.84,2.81-1.75,4.32-2.34,3.39-1.31,6.1.35,6.54,3.96.15,1.24.29,2.61-.06,3.77-1.31,4.39.45,7.41,3.72,10.19,3.64,3.11,6.66,6.93,10.63,9.7,3.09,2.15,2.35,5,1.52,7.85-3.51,12.01-7.15,23.98-10.57,36.02-10.26,36.14-23.33,71.35-35.54,106.84-1.45,4.22-4.48,1.65-7.43,2.46,3.41-9.49,6.5-18.43,9.82-27.29,13.08-34.94,24.46-70.44,35.43-106.09.45-1.45.77-2.94,1.22-4.38.45-1.46.64-2.76-1.3-3.25-1-.25-1.42-.92-1.42-1.94,0-1.25.91-1.21,1.77-1.48,3.43-1.08,4.31-4,1.76-6.54-2.86-2.85-6.02-5.39-9.07-8.05-2.4-2.1-3.36-.57-3.73,1.65-.22,1.34.25,2.79.04,4.13-.35,2.18-1.63,3.75-4,3.88-2.14.12-3.69-1-4.37-2.97-.71-2.06.16-3.64,1.92-4.85,4.01-2.77,5.56-6.74.41-9.69-1.92-1.1-3.54-3.89-5.69-3.16-2.54.87-1.39,3.95-1.58,6.12-.21,2.39-1.53,3.81-3.77,4.05-2.19.24-4.02-.77-4.77-2.94-.76-2.18.11-4.02,1.95-5.27,5.65-3.85,5.71-5.67.15-9.87-1.61-1.22-3.26-2.39-4.89-3.59-2.34-1.71-3.16-.61-3.18,1.77-.01,1.13.25,2.28.14,3.4-.2,2.09-1.31,3.55-3.48,3.9-1.91.31-3.65-.2-4.47-2.05-.87-1.95-.9-3.96,1.07-5.46.8-.61,1.76-1.1,2.35-1.87,1.09-1.41,2.22-3.18.73-4.78-2.42-2.6-5.54-4.4-8.69-5.99-1.45-.73-2.02.66-2.14,1.84-.14,1.37.07,2.78-.04,4.16-.18,2.28-1.42,3.79-3.69,4.2-1.79.32-3.29-.35-4.04-2.09-.92-2.17-.27-3.95,1.64-5.28.72-.51,1.55-.89,2.19-1.49,2.04-1.89,2-4.44-.25-6.04-2.68-1.9-5.44-3.7-8.28-5.34-2.69-1.55-4.64-.2-4.49,2.96.04.88.43,1.77.33,2.61-.22,1.79-1.31,3.01-3.08,3.43-1.83.44-3.31-.34-4.16-1.9-.85-1.58-.57-3.21.79-4.49.55-.52,1.27-.84,1.81-1.36,2.54-2.45,2.38-5.92-.34-8.14-.29-.24-.6-.46-.91-.69-5.57-4.19-5.89-4.19-8.74,2.27-7.3,16.53-14.45,33.14-21.78,49.66-1.14,2.56-1.03,4.42,1.14,6.33,9.79,8.6,17.9,18.9,27.57,27.63,1.41,1.27,1.7,2.62,1.05,4.4-1.19,3.24-2.85,6.2-4.81,9.01-4.56,6.53-9.2,13-13.72,19.56-1.99,2.89-4.07,4.17-7,1.24-1.97-1.98-3.41-.53-4.82.78-5.94,5.54-12.25,10.52-19.54,14.25-3.35,1.72-5.94,1.8-8.88-.87-2.6-2.36-5.81-4.03-8.64-6.14-1.75-1.31-2.9-1.2-3.81.86-6.07,13.76-12.16,27.52-18.22,41.29-1.36,3.1.32,4.98,2.7,6.63,12.25,8.51,24.6,16.88,37.53,24.33,4.69,2.71,9.36,5.45,14.69,8.56ZM122.6,522.77c.36-.05.71-.1,1.07-.15.39-3.49.88-6.98,1.16-10.48,2.26-28.35,4.55-56.7,6.68-85.06.47-6.28,2.32-12.76.59-18.85-3.3-11.65-7.16-23.13-13.1-33.85-11.79-21.3-28.22-39.1-42.98-58.17-1.54-1.99-3.5-3.69-6.74-4.94,22.88,69.78,37.68,140.75,53.32,211.5ZM62.81,319.01c-.28,1.81-.63,3.62-.84,5.44-5.52,46.67-10.99,93.34-16.58,139.99-.39,3.26.58,5.08,3.38,6.7,12.35,7.13,25.07,13.66,36.49,22.32,1.14.86,2.41,2.6,3.85,1.71,1.16-.72.35-2.62.17-3.94-2.38-17.27-4.71-34.54-7.26-51.78-4.98-33.74-10.08-67.46-15.15-101.18-.97-6.45-1.72-12.94-4.05-19.25ZM315.35,552.29c-1.73.81-2.93,2.29-4.17,3.71-8.29,9.53-16.43,19.19-24.92,28.55-2.91,3.21-4.28,6.2-3.84,10.72,1.95,20.12,3.47,40.28,5.18,60.42.09,1.04-.21,2.31,1.38,2.74,2.79.75,7.33-1.18,8.61-3.85,3.86-8.09,7.82-16.15,11.47-24.33,2.35-5.26,6.22-8.81,11.21-11.32,3.16-1.59,6.56-2.59,9.93-3.69,3.04-1,6.18-1.57,9.22-2.78,2.77-1.11,5.33,3.33,8.33,4.75.66.31,1.38,1.02,1.94.1.4-.66.15-1.55-.47-2.07-.76-.65-1.6-1.27-2.5-1.68-4.55-2.03-7.4-5.59-9.26-10.06-1.94-4.66-3.83-9.35-5.72-14.03-4.55-11.24-9.06-22.5-13.65-33.72-.54-1.32-.85-2.97-2.74-3.44ZM216.45,618.81c.1-.32.21-.64.31-.96-1.17-.93-2.32-1.89-3.52-2.79-15.57-11.66-31.23-23.2-47.08-34.47-11.32-8.05-22.46-16.36-33.6-24.67-2.48-1.85-4.14-2.13-6.11.73-2.28,3.32-5.07,6.29-7.58,9.46-6.59,8.32-13.1,16.7-19.76,24.96-2.12,2.63-1.49,3.88,1.54,4.59,2.09.49,4.13,1.18,6.23,1.61,29.21,5.92,58.39,12.01,87.71,17.34,7.3,1.33,14.56,2.8,21.85,4.21ZM328.87,330.26c-1.59,4.36-1.94,8.86-2.32,13.31-2.63,30.73-3.59,61.56-4.96,92.36-.63,14.27-1.08,28.54-1.64,42.81-.08,2.13.13,3.73,2.44,4.9,8.25,4.17,16.59,8.01,25.62,10.23,4.45,1.09,4.53,1.2,3.87-3.45-7.42-52.29-13.33-104.79-21.42-156.98-.17-1.06.03-2.31-1.59-3.17ZM229.24,87.1c8.44-.05,16.51-1.89,24.39-4.81,1.68-.62,2.29-1.76,2.51-3.4.9-6.51,1.79-13.02,2.83-19.5.4-2.5-.63-2.95-2.7-2.42-3.18.82-6.32,1.79-9.53,2.49-19.35,4.21-35.9.02-49.06-15.66-6.96-8.3-12.99-8.7-24.75-5.64-3.63.94-5.02,3.11-4.25,7.06,2.08,10.66,3.83,21.39,5.76,32.08,1.07,5.93,1.17,6.11,6.94,4.74,11.42-2.71,22.48-2.3,33.37,2.48,4.53,1.99,9.51,2.51,14.48,2.59ZM293.05,721.36c3.74-.28,6.76-2.57,9.42-5.31,6.84-7.05,11.63-15.52,16.3-24.05,1-1.84.65-3.28-.76-4.74-3.19-3.3-6.56-6.29-11-7.82-15.28-5.26-30.09-11.72-45.05-17.79-5.68-2.31-5.68-2.34-7.82,3.22-1.9,4.95-3.67,9.95-5.7,14.84-.95,2.3-.72,3.97,1.11,5.73,11.19,10.76,23.12,20.71,34.05,31.76,2.44,2.47,5.58,3.88,9.46,4.16ZM69.14,324.88c-.74,2.53-.33,4.15-.1,5.75,4.26,29.5,8.61,58.99,12.81,88.5,3.36,23.63,6.67,47.28,9.68,70.96.74,5.85,2.77,10,8.55,11.96,3.86,1.31,6.08,4.26,7.51,8,2.67,6.98,6.52,13.39,9.97,19.99.54,1.04.85,2.44,3.14,2.77-15.88-69.53-30.71-138.99-51.55-207.93ZM182.89,241.8c2.46,0,3.86.12,5.23-.03,1.73-.19,4.74.85,4.85-1.12.11-2.04-1.86-4.35-4.12-5.45-1.22-.6-2.67-.73-4.02-1.03-6.57-1.49-11.68-4.97-15.63-10.51-5.27-7.39-8.73-15.66-11.95-24.01-3.28-8.51-3.54-17.24-.08-25.86.86-2.14.79-4.21-.2-6.24-3.58-7.38-7.3-14.7-10.77-22.14-1.47-3.16-3.34-3.22-6-1.71-1.85,1.05-2.6,2.61-2.9,4.59-.72,4.88-.99,9.8-1.08,14.73-.29,15.43-.42,30.81,3.97,45.87,1.54,5.28,3.97,9.75,8.22,13.27,4.96,4.11,9.87,8.27,14.71,12.52,5.98,5.26,12.72,8.17,19.75,7.14ZM407.33,544.95c.21,2.28.62,6.17.92,10.07.18,2.37,1.38,3.37,3.71,3.2,7.05-.53,13-2.9,16.54-9.57,1.61-3.04,2.66-6.26,3.59-9.55,1.67-5.91,4.45-12.01-2.8-16.42-.53-.32-.87-1.03-.49-1.66.39-.64,1.04-.59,1.64-.21,3.67,2.3,3.51-.08,2.82-2.47-.93-3.19.79-3.21,2.96-2.76,3.08.64,5.66,2.09,7.37,4.85,2.12,3.43,4.24,6.87,6.41,10.28.59.94,1.16,2.41,2.36,2.21,3.07-.51,5.6-2.26,7.62-4.58,1.63-1.88,1.29-4.02.11-6-2.4-4.05-4.12-8.38-5.43-12.87-.59-2.01-1.91-3.15-3.67-4.05-5.41-2.75-11.04-4.95-16.82-6.83-2.88-.94-5.08-.35-7.14,1.84-4.68,4.95-9.46,9.81-14.22,14.69-1.37,1.4-2.23,3.04-2.63,4.94-1.64,7.67-2.81,15.4-2.84,24.89ZM162.64,114.09c.51,2.73,1.15,5.44,1.51,8.19.41,3.08,1.59,3.23,3.82,1.44,3.54-2.85,7.08-6.14,11.68-6.75,11.78-1.56,23.65-2.8,34.95,2.48,1.77.83,2.42.57,2.93-1.2,2.38-8.25,4.78-16.49,7.24-24.72.97-3.25-.37-4.63-3.48-5.21-3.59-.67-7.34-1.16-10.65-2.58-10.38-4.47-20.75-3.16-31.23-.81-1.87.42-3.28,1.16-3.98,3.04-2.74,7.39-7.01,13.98-10.86,20.79-.93,1.65-1.91,3.3-1.93,5.34ZM225.76,247.02c6.11-.25,11.8-.22,17.44-1.09,6.43-1,8.97-5.85,11.43-10.98,2.08-4.33-1.41-6.44-3.28-9.22-.85-1.26-1.95-2.35-2.71-3.65-1.62-2.77-3.97-3.6-7.03-3.22-3.88.48-7.81,1.22-11.68,1.07-13.09-.51-23.29,6.53-33.98,12.41-2.02,1.11-2.21,2.54-.75,4.3,3.34,4.04,7.02,7.48,12.21,9.2,6.22,2.06,12.51,1.17,18.35,1.18ZM189.65,213.89c-.12,0-.24,0-.36,0,0-5.31-.06-10.62.02-15.93.05-2.92-1.02-4.99-3.53-6.6-6.37-4.1-12.57-8.48-18.97-12.54-2.24-1.42-4.6-4.56-7.18-3.09-2.34,1.33-1.86,5.01-2.01,7.76-.89,16.75,6.91,30.17,16.78,42.65,2.8,3.54,7.08,5.12,11.45,6.29,2.87.77,3.92.03,3.83-2.99-.15-5.18-.04-10.36-.04-15.54ZM146.83,107.66c.35,3.48.65,6.11.87,8.75q.72,8.75,9.38,9.66c5.05.53,5.26.47,3.92-4.31-1.59-5.69-1.18-10.74,2.3-15.78,3.06-4.45,5.34-9.43,7.96-14.18,1.12-2.03,1.81-4.2,1.44-6.54-2.02-12.96-4.08-25.92-6.15-38.87-.13-.83-.18-1.94-1.2-2.15-1.03-.21-1.49.82-1.98,1.5-3.14,4.42-6.18,8.92-9.37,13.3-2.15,2.94-2.81,6.05-2.23,9.63,1.07,6.6,1.78,13.26,2.94,19.84.84,4.76-.12,8.56-3.85,11.86-2.31,2.04-4.69,4.43-4.02,7.3ZM400.24,518.49c-.53-.56-.67-.85-.85-.88-12.87-1.78-25.74-3.54-38.61-5.29-1.75-.24-3.18.36-4.42,1.63-6.92,7.04-13.56,14.3-17.87,23.32-2.35,4.91-4.84,9.7-8.14,14.06-.62.82-1.83,1.92-.87,2.95.9.96,2.15-.02,3.11-.51,20.44-10.45,40.88-20.92,61.29-31.43,2.17-1.12,4.19-2.52,6.36-3.84ZM206.57,160.47q.24-4.73-4.16-3.97c-8.07,1.4-15.88.98-23.07-3.44-2.59-1.59-5.24-1.53-8-.54-6.52,2.33-11.09,8.87-11.08,15.78,0,1.55.5,2.72,1.75,3.54,8.55,5.63,17.09,11.25,25.66,16.84,2.06,1.35,3.56.98,4.9-1.34,3.74-6.45,7.69-12.78,11.6-19.12,1.56-2.53,2.71-5.14,2.4-7.75ZM241.45,699.61c-.25,2.31.77,3.5,1.58,4.76,9.01,13.99,20.75,25.76,31.33,38.48,1.93,2.32,3.58,2.08,5.55-.06,4.2-4.56,8.12-9.34,11.9-14.25,1.78-2.31,1.09-3.11-1.39-3.73-4.65-1.16-8.56-3.62-11.96-7-3.22-3.21-6.57-6.3-9.89-9.41-6.55-6.13-13.1-12.27-19.72-18.32-.98-.89-2.4-3.34-3.7-.55-1.6,3.42-2.64,7.09-3.71,10.08ZM287.64,183.24c0-4.8.05-9.59-.04-14.39-.02-1.03.47-2.61-.83-2.99-1.2-.35-1.84,1.11-2.56,1.91-5.57,6.19-11.07,12.45-16.66,18.63-1.81,2-2.64,4.13-2.3,6.88.83,6.78,1.13,13.59.36,20.41-.16,1.42,0,2.78.78,4.01,2.08,3.31,4.15,6.63,6.26,9.93,1.14,1.77,2.26,2.19,3.62.07,3.69-5.74,7.23-11.49,9.16-18.18,2.49-8.64,2.55-17.44,2.21-26.28ZM399.38,526.1c-2.21-.48-3.49.49-4.8,1.12-11.57,5.66-23.15,11.32-34.66,17.09-9.71,4.86-19.35,9.87-29.01,14.84-.83.43-2.21.75-1.8,2.03.39,1.24,1.69.83,2.65.69,4.12-.6,8.24-1.26,12.36-1.88,15.23-2.31,30.47-4.61,45.71-6.92,1.75-.26,3.46-.29,3.69-2.84.73-8.22,2.6-16.19,5.86-24.14ZM248.26,248.72c-10.79,2.02-20.87,1.45-30.93,1.58-4.63.06-9-.98-13.26-2.7-1.01-.41-2.18-1.57-3.12-.76-1.07.93-.29,2.41.14,3.54.89,2.36,1.88,4.69,2.96,6.97,2.65,5.59,5.32,11.17,7.41,17.01,1.73,4.81,2.9,5.49,7.9,4.51,1.59-.31,3.2-.84,4.64-1.57,11.84-6.03,17.6-17.16,24.27-28.57ZM241.95,114.24c-.57-2.04.27-3.54.78-5.05,2.09-6.23,2.12-6.21,8.74-6.11,2.02.03,4.05.14,6.06-.03,8.71-.76,15.24,2.52,19.49,10.24,1.26,2.29,3.75,4.33,5.72,3,1.89-1.27.45-4.31-.97-6.1-6.74-8.52-13.65-16.9-21.19-24.74-1.67-1.74-3.44-2.17-5.79-1.29-5.93,2.22-12.07,3.73-18.36,4.5-3.55.43-4.95,2.1-4.03,5.61,1.7,6.47,3.35,12.96,5.09,19.42,1.31,4.87,1.35,4.81,5.86,3.26,1.3-.45,2.7-.65,4.07-.87,5.99-.95,12-1.72,18.07-1.91,1.25-.04,2.67.19,3.82-.94-6.41-3.97-9.16-3.86-27.36,1.01ZM174.86,30.88c3.55-1.59,7.07-3.24,10.65-4.77,8.07-3.44,16.1-3.65,24.19.13,3.65,1.7,7.52,2.94,11.31,4.32,4.49,1.64,9.14,2.03,13.8,1.05,11.12-2.34,21.55-.65,31.46,4.82,3.48,1.92,7.06,3.65,11.34,5.85-1.69-4.59-3.18-8.28-7.26-9.98-3.72-1.55-7.44-3.23-11.32-4.27-17.67-4.74-35.41-9.21-53.09-13.92-6.24-1.66-12.02-.79-17.5,2.37-5.91,3.41-10.07,8.6-13.58,14.39ZM267.55,27.74c-5.52-5.31-10.08-10.34-16.64-12.91-15.76-6.17-32.1-9.77-48.92-11.33-1.91-.18-3.79-.05-5.57.76-11.22,5.09-21.73,11.24-30.58,19.99-2.74,2.71-3.7,5.9-3.92,9.53-.11,1.87.75,3.41,2.3,3.96,1.47.53,1.93-1.32,2.59-2.26,4.12-5.89,7.87-12.05,13.36-16.89,7.63-6.72,15.97-9.51,26.19-6.73,19.96,5.43,40.04,10.41,61.19,15.87ZM284.39,56.88c-1.42-4.15-2.15-8.12-5.82-10.54-7.72-5.1-15.72-9.65-24.64-12.35-3.41-1.03-7.03-2.01-10.46-1.3-13.59,2.84-26.01.06-38.59-5.48-9.2-4.05-18.14-.24-25.97,5.83,4.7.03,9.26.04,13.53,2.34,7.15,3.83,14.85,5.43,22.98,5.51,12.13.13,24.26.53,36.39.85,10.94.29,20.52,3.82,28.25,11.84,1.11,1.15,2.12,2.51,4.34,3.3ZM191.93,209c4.2-4.28,7.59-7.97,10.42-12.1,1.82-2.65,3.71-4.24,7.18-3.21,1.69.5,3.47-.38,5.13-.99,3.82-1.4,7.7-2.38,11.83-2.18.79.04,1.92.5,2.33-.59.34-.93-.48-1.69-1.03-2.3-4.21-4.71-3.73-9.59-.65-14.61.9-1.47,1.54-2.83-.18-4.32-1.61-1.39-2.94-1.92-5-.61-3.71,2.36-7.78,3.05-11.88.98-1.76-.89-2.72-.45-3.71,1.06-4.43,6.75-9.18,13.32-12.59,20.68-2.57,5.55-1.95,11.44-1.85,18.18ZM258.71,154.64c-1.89,0-3.78-.02-5.67,0-.96.02-2.44-.15-1.86,1.44,1.66,4.52.22,9.63,2.88,13.95,2.85,4.61,5.66,9.26,8.29,14,1.67,3,3.06,2.48,4.95.24,4.8-5.69,9.7-11.29,14.56-16.93,5.61-6.5,5.49-6.37-1.11-12.07-2.69-2.33-5.18-2.99-8.55-1.94-4.37,1.35-8.96,1.38-13.5,1.31ZM87.81,522.98c.27,0,.54,0,.81,0,0,5.44.05,10.87-.03,16.31-.03,2.08.75,3,2.85,3.01,8.09.03,16.18.09,24.27.2,2.33.03,2.63-.8,1.47-2.67-4.37-7.1-8.2-14.53-12.95-21.41-3.64-5.29-8.22-9.57-13.39-13.28-.68-.49-1.39-1.33-2.34-.84-.96.49-.67,1.56-.68,2.4-.03,5.43-.01,10.87-.01,16.3ZM159.1,39.07c-4.82-1.91-9.11-1.27-13.1-2.26-3.07-.76-5.34.1-7.54,2.15-7.03,6.54-14.01,13.15-20.07,20.6-8.18,10.07-6.9,21.45-4.36,33.21,1.82-.81,2.18-2.1,2.77-3.17,6.43-11.59,12.59-23.32,19.46-34.67,4.38-7.23,10.5-11.76,18.32-14.35,1.18-.39,2.36-.79,4.51-1.51ZM251.45,195.31c-.05,1.85-.96,3.04-2.08,3.75-4.78,2.99-5.99,7.72-6.95,12.81-.55,2.89-.13,4.24,2.98,3.38,2.74-.76,4.23.42,5.42,2.73,1.39,2.71,3.18,5.17,5.33,7.34.57.58,1.16,1.42,2.23.94,1.99-.89,4.9-9.44,3.86-11.5-2.98-5.86-5.93-11.74-8.09-17.96-.82-2.36-2.26-3.29-4.79-3.35-8.61-.2-17.17.42-25.74,1.05-2.61.19-5.19,1.05-7.76,1.69-1.2.3-1.83,1.08-.7,2.14,1.93,1.8,3.79,3.64,6.82,3.58,4.04-.08,8.1-.1,12.12.25,5.76.49,10.75-.67,14.59-5.33.6-.73,1.35-1.5,2.77-1.49ZM191.47,220.67c.14,2.79.27,4.56.3,6.32.03,2.41.67,3.13,3.14,1.86,7.06-3.64,14.25-7.05,21.38-10.56,4.1-2.02,5.34-10.84,1.84-13.83-3.26-2.79-6.74-5.31-10.03-8.06-1.6-1.33-2.47-1.07-3.45.72-2.56,4.66-5.67,8.99-9.21,12.93-3.07,3.42-4.9,6.99-3.96,10.62ZM263.18,209.36c.44-1,.52-1.11.54-1.23,1.51-14.65-4.85-26.78-12.38-38.53-.52-.8-1.22-1.27-2.24-.98-3.15.91-6.46.76-9.67,1.66-3.71,1.05-5.75,2.07-3.01,6.07.5.74.5,1.98.4,2.95-.27,2.51-.63,5.02-1.15,7.49-.54,2.56.06,3.76,2.94,3.64,3.02-.12,6.06.26,9.09.24,4.45-.04,7.31,2.02,9.14,6.04,1.86,4.09,4.02,8.04,6.35,12.65ZM229.07,278.27c2.18,1.08,3.96.59,5.62.33,10.88-1.68,20.48-5.03,24.72-16.85,2.33-6.5,5.8-12.59,8.69-18.9.54-1.19,1.49-2.35.94-4.23-3.12,1.18-6.1,2.46-9.18,3.42-3.58,1.12-5.82,3.32-7.69,6.64-6.11,10.87-12.07,21.94-23.09,29.59ZM193.1,117.66c-7.06.37-13.68.43-19.47,4.21-1.09.71-2.54,1.27-2.14,3.14.83,3.81,4.08,5.29,7.5,3.39,2.1-1.16,4.2-2.33,6.38-3.3,7.29-3.23,14.8-4.01,22.5-1.6,1.29.4,3.05.7,3.28,2.2.26,1.72-1.65,2.02-2.79,2.62-8.84,4.63-17.94,7.56-27.94,3.8-.82-.31-1.84-.61-2.42.27-.48.73.23,1.42.7,1.99,3.34,4.02,7.06,7.55,12,9.59,3.09,1.27,5.92,1.08,8.41-1.31,4.73-4.54,9.75-8.79,14.01-13.81,3.57-4.21,3.2-6.01-1.95-8.36-5.92-2.7-12.3-2.44-18.08-2.82ZM117.12,112.43c4.9-3.71,9.46-7.05,13.89-10.55,8.27-6.51,8.35-16.55.25-23.05-.59-.47-1.23-.89-1.79-1.39-1.75-1.54-2.95-1.32-4.04.87-2.31,4.62-4.47,9.36-7.31,13.66-4.3,6.51-3.62,13.04-1,20.46ZM319.74,507.51c.09,0,.18,0,.27,0,0,4.92-.03,9.83.02,14.75.01,1.08-.33,2.62.9,3.01,1.21.39,1.84-1.07,2.57-1.88,5.95-6.68,10.55-14.48,17.11-20.65,1.3-1.22.54-1.97-.5-2.65-5.47-3.62-11.14-6.89-17.09-9.67-2.51-1.17-3.37-.29-3.31,2.35.11,4.91.03,9.83.03,14.75ZM321.89,738.96c.51-.34.98-.55,1.32-.89,2.98-2.98,5.2-6.5,7.18-10.18.7-1.29-.15-2.18-1.02-2.94-4.85-4.24-9.74-8.43-14.57-12.69-1.76-1.55-3.1-1.06-4.47.54-1.98,2.3-3.95,4.61-6.1,6.74-1.67,1.65-1.49,2.85.13,4.38,4.86,4.6,9.57,9.37,14.96,13.37.79.59,1.66,1.08,2.57,1.66ZM132.83,141.12c.37-.08.73-.17,1.1-.25-.56-6.22-1.76-12.38-5.04-17.79-1.93-3.17-5.53-4.64-9.28-3.77-3.46.81-4.21,4.03-4.72,7.11-.56,3.38-.69,6.78-.33,10.2,1.4,13.25,6.1,25.48,11.59,37.46.95,2.07,2.21,3.98,3.83,5.6.63.63,1.31,1.39,2.26,1.14,1.04-.27,1-1.34,1.09-2.21.2-2.01.34-4.03.57-6.04.46-4.01.8-7.9-4.51-9.09-.66-.15-1.25-.85-1.75-1.4-7.23-7.91-10.87-17.24-10.66-27.95.06-3.1.19-6.78,4.16-7.62,3.61-.76,5.36,2.24,7.03,4.74,1.11,1.67,1.85,3.58,2.7,5.41.69,1.47,1.3,2.97,1.95,4.45ZM333.32,722.62c.51-.44,1.06-.77,1.4-1.24,1.98-2.77,3.97-5.54,5.3-8.71.67-1.6.27-3-.85-4.18-4.6-4.85-9.24-9.66-13.83-14.52-1.24-1.31-2.24-1.46-3.23.23-2.05,3.48-4.11,6.95-6.21,10.4-.9,1.48-.45,2.56.74,3.62,4.79,4.29,9.53,8.64,14.33,12.93.64.57,1.46.93,2.36,1.48ZM156.37,234.35c1.65,6.85,3.04,14.12,8.4,18.95,7.33,6.59,16.03,11.41,24.71,16.08.26.14.68-.03,1.25-.07-.19-.73-.22-1.37-.5-1.88-3.73-6.74-7.49-13.47-11.26-20.19-.52-.94-1.37-1.56-2.38-1.76-7.84-1.55-14.24-5.64-20.23-11.14ZM189.43,245.67c-1.26,0-2.53-.04-3.79,0-4.06.15-4.33.5-2.38,4.08,3.56,6.54,7.36,12.95,10.89,19.51,2.26,4.2,5.63,6.7,10.22,7.63,1.42.29,3.13,1.62,4.24.31.86-1.01-.29-2.63-.82-3.86-3.11-7.18-6.5-14.25-9.38-21.52-2.49-6.28-2.24-6.38-8.98-6.16ZM246.13,657.41c-2.31-.27-3.06,1.39-3.71,3.08-5.54,14.35-11.05,28.72-16.6,43.06-.96,2.48-.91,4.45,2.02,5.41,2.83.93,4.17-.49,5.04-3.01,5.13-14.77,10.54-29.44,16.46-43.92,1.39-3.39.42-4.62-3.21-4.61ZM157.36,163.71c.42,0,.84-.01,1.25-.02,1.98-6.91,6.43-11.46,12.84-14.13,1.54-.64,1.23-1.63.44-2.7-2.49-3.36-4.68-6.9-6.59-10.62-.68-1.33-1.67-1.77-3.12-1.26-4.29,1.52-8.59,2.99-12.88,4.49-1.39.48-2.19,1.35-1.51,2.88,3.17,7.13,6.37,14.24,9.57,21.36ZM455.46,572.49c0-.12,0-.25,0-.37,1.64,0,3.27.05,4.91,0,9.84-.37,11.52-1.86,13.2-11.65.06-.37.1-.75.16-1.12.54-3.04-.68-4.13-3.75-3.75-6.64.82-13.15,2.21-19.62,3.87-1.5.38-2.87,1.02-3.35,2.71-.72,2.54-1.44,5.08-2.17,7.62-.61,2.1.43,2.73,2.31,2.71,2.77-.02,5.54,0,8.3,0ZM224.07,286.47s0,.06,0,.09c-2.65,0-5.29.08-7.93-.03-1.93-.07-2.75.59-2.63,2.61.28,4.4.43,8.81.61,13.22.07,1.76.7,2.86,2.7,2.8,5.04-.15,10.07-.26,15.11-.32,2.01-.02,2.56-1.12,2.57-2.9.02-4.16.04-8.32.2-12.47.09-2.29-.77-3.18-3.08-3.04-2.51.15-5.03.03-7.55.03ZM267.64,57.01c-.71,1.15-.17,1.82.18,2.43,4.31,7.43,8.56,14.89,13.04,22.22,2.6,4.26,3.83,8.72,3.55,13.69-.13,2.38-.12,4.82.22,7.17.47,3.24,3.4,3.17,5.65,3.21,2.28.04,1.57-2.23,1.64-3.55.27-5.17.15-10.37.62-15.52.34-3.76-.97-6.35-4-8.29-4.48-2.88-7.78-6.72-9.87-11.67-2.11-4.99-6.79-7.06-11.03-9.69ZM455.06,479.43c-.25,1.5.43,2.44,1.7,3.07,3.23,1.59,3.6-.92,4.16-2.97,5.11-18.77,10.16-37.55,15.3-56.3.55-2,1.04-3.72-1.53-4.57-2.96-.98-3,1.44-3.55,3.12-4.24,12.97-7.43,26.24-11.1,39.38-1.7,6.08-3.32,12.18-4.98,18.28ZM409.24,563.69c.66,5.86,1.6,10.52,4.29,14.68,1.69,2.61,3.76,4.66,6.67,5.93,2.06.89,3.06.36,3.44-1.77,1.51-8.46,3.86-16.71,5.98-25.02.23-.92.72-2.1-.39-2.72-.9-.51-1.68.32-2.34.84-4.27,3.42-9.1,5.35-14.56,5.72-2.16.14-3.28,1.14-3.08,2.35ZM240.96,144.25c-.8-2.59-1.19-4.47-1.96-6.18-1.63-3.65.49-9.32-3.82-11.04-3.62-1.44-8.22-.42-12.38-.49-.25,0-.51.03-.76.03-2-.04-3.03.93-3.14,2.94-.29,5.48-1.51,10.72-3.65,15.79-1.38,3.27,1.27,5.27,3.42,6.32,2.33,1.14,1.38-2.15,2.47-3.06.36-.3.41-.96.76-1.29,2.81-2.64,2.59-5.67,1.54-9.02-.58-1.86-1.49-3.99.47-6.21.88,3,1.66,5.65,2.43,8.3.42,1.45,1.08,2.5,2.9,2.25,3.79-.51,7.51-.15,11.71,1.66ZM405.04,524.87l-.76-.09c-.23.3-.49.58-.69.89-.26.43-.51.88-.7,1.34-6.57,16.1-7.48,32.56-3.13,49.34.54,2.09,1.66,3.95,3.16,5.54,1.29,1.37,2.77,1.66,4.43.69,1.59-.92,1.76-2.2,1.22-3.88-4.59-14.3-5.12-28.99-4.07-43.83.24-3.33.35-6.68.53-10.01ZM228.4,124.38c0,.05,0,.1,0,.15,1.77,0,3.54-.1,5.3.02,2.91.21,3.89-.95,3.22-3.8-2.07-8.85-4.2-17.69-7.23-26.28-.28-.8-.4-1.89-1.54-1.86-1.11.03-1.3,1.14-1.53,1.92-2.54,8.47-5.04,16.94-7.5,25.43-.81,2.78.11,4.44,3.22,4.42,2.02,0,4.04,0,6.06,0ZM197.36,302.04c1.67.29,2.69-.37,3.06-2.02.36-1.59-.54-2.3-1.88-2.77-3.21-1.14-6.55-2.03-9.58-3.52-16.05-7.92-32.7-14.85-46.43-26.8-.19-.17-.41-.3-.58-.48-1.25-1.27-2.17-.74-3.05.49-2.09,2.93.47,4.01,2.15,5.37,14.25,11.64,31.14,18.65,47.3,26.93,2.81,1.44,5.9,2.24,9.01,2.81ZM189.22,4.46c-11.83,1.06-23.01,4.51-34.02,8.55-3.6,1.32-5.22,4.59-6.45,8-.54,1.51.01,2.65,1.1,3.73,3.58,3.53,6.99,3.87,11.04.51,8.99-7.49,17.17-16.06,28.33-20.79ZM215.21,130.17c-1.34,1.27-2.35,2.18-3.3,3.13-3.3,3.3-6.59,6.61-9.88,9.92-3.26,3.29-7.21,4.33-11.45,2.71-3.32-1.27-5.72-.15-8.39,1.55-2.62,1.67-2.9,2.87.06,4.26,15.85,7.42,28.07,3.51,32.95-14.12.59-2.14,1.09-4.4.02-7.45ZM479.21,539.04c.43-3.37-1.28-3.75-3.86-2.74-8.95,3.5-17.77,7.28-26.1,12.11-1.68.97-3.2,2.12-2.27,4.54,1,2.6,2.82,2.8,5.2,2.23,6.63-1.6,13.24-3.34,20.01-4.28,1.73-.24,3.11-.98,3.97-2.57,1.58-2.92,2.62-6.02,3.05-9.29ZM215.57,43.32c.12.31.13.61.29.75,12.15,10.71,26.63,10.55,41.43,8.82,1.04-.12,1.8-1,.75-1.79-3.99-2.99-6.75-7.74-12.84-7.64-8.05.13-16.11-.46-24.16-.67-1.82-.05-3.74-.6-5.48.54ZM139.06,84.26s-.09,0-.13,0c0,3.15-.03,6.29.02,9.44.02,1.24.41,2.42,2.01,1.81,3.4-1.3,6.77-2.7,10.12-4.13,1.03-.44,1.45-1.41,1.33-2.5-.84-7.64-2.01-15.22-3.73-22.71-.35-1.5-1.17-1.97-2.35-.83-3.59,3.48-7.75,6.63-7.3,12.51.16,2.13.03,4.28.03,6.42ZM233.05,144.53c-.86.05-1.36.07-1.86.12-3.67.33-6.58,1.83-7.79,5.53-1.19,3.63-.59,7.12,2.04,9.86,2.62,2.74,5.98,2.21,9.16.95,2.57-1.02,5.1-2.17,7.54-3.46,3.25-1.72,3.92-4,2.12-7.19-2.53-4.49-6.88-5.52-11.22-5.8ZM282.08,105.39c.18-9.2.93-17.3-4.23-24.56-3.94-5.55-7.43-11.41-10.64-17.42-.71-1.32-1.42-2.64-2.13-3.97-.32,1.66-.11,3.03.43,4.27,3.38,7.76,5.2,15.76,4.38,24.28-.09.95.08,2.11.57,2.91,3.06,5.04,7.09,9.29,11.62,14.49ZM161.47,42.28c-9.25.44-16.32,3.97-21.29,11.13-3.37,4.86-6.12,10.14-9.34,15.11-2.12,3.27-2.42,5.91,1.35,8.12,1.47.86,2.68,3.57,4.05,2.8,1.76-.99,1.07-3.81.55-5.55-1.74-5.91,1.04-9.93,4.92-13.72,4.71-4.59,10.01-8.45,15.08-12.6,1.61-1.32,3.52-2.42,4.68-5.29ZM241.48,136.1c1.07,4.97,2.6,9.14,5.45,12.78,1.28,1.63,2.85,3.06,4.86,3.43,7.19,1.32,14.32.8,21.34-1.26,1.25-.37,2.14-.87,1.01-2.35-2.58-3.36-5.05-6.74-10.2-5.41-2.18.56-4.53.46-6.74.93-3.84.82-6.83-.37-9.56-3.09-1.72-1.71-3.25-3.76-6.16-5.03ZM309.08,675.51c1.42-.15,1.81-1.93,2.43-3.35,4.92-11.35,9.81-22.71,14.65-34.09,1.28-3.02,2.4-6.11,3.49-9.2.31-.87,1.19-1.99.13-2.75-.9-.64-1.91.19-2.81.59-2.17.95-3.05,2.95-3.88,4.92-3.81,9.08-7.64,18.15-11.31,27.28-1.79,4.45-3.27,9.02-4.83,13.55-.48,1.39-.75,2.84,2.13,3.05ZM452.8,585.83s0-.08,0-.12c1.76,0,3.52.02,5.29,0,1.76-.03,3.54.04,5.28-.18,3.31-.43,4.75-3.06,4.52-7.48-.19-3.67-2.93-2.43-4.76-2.45-5.54-.06-11.08.12-16.62.24-1.46.03-3.19-.36-3.82,1.59-.89,2.74-2.1,5.47-1.65,8.42.15.99,1.49.64,2.33.59,3.14-.18,6.28-.4,9.42-.6ZM299.57,725.94c-.41.2-1.07.35-1.51.75-2.69,2.34-4.71,5.23-6.69,8.15-.77,1.13-.15,1.87.73,2.53,3.53,2.65,7.06,5.29,10.57,7.95.87.66,1.74,1.1,2.69.21,2.49-2.31,4.98-4.63,7.45-6.97.49-.46.74-1.17.23-1.69-3.88-3.94-7.85-7.8-12.53-10.82-.19-.12-.49-.07-.93-.12ZM240.59,124.29q16.78-2.88,26.32,2.66c1.57.91,3.18,2.33,5.17.75,1.9-1.51,3.32-6.99,2.53-9.54-.81-2.62-2.94-2.32-4.95-2.38-8.03-.25-15.77,1.76-23.61,2.98-2.93.46-4.52,2.41-5.45,5.54ZM256.1,142.36c2.49-.36,4.97-.79,7.47-1.08,3.59-.42,5.61-2.57,6.7-5.81.39-1.17,1.12-2.42-.06-3.51-1.15-1.06-2.5-1.76-4.13-1.2-.95.33-1.87.76-2.77,1.21-4.73,2.35-9.41,2.3-14.17.02-1.92-.92-4-1.5-6.04-2.14-.54-.17-1.42-.22-1.76.1-.7.65-.04,1.39.38,1.97,2.14,2.99,4.91,5.4,7.48,7.99,1.91,1.92,4.18,2.74,6.89,2.47ZM234.89,168.89c.29-.03.92-.08,1.54-.19,3.92-.64,4.93-1.93,3.93-5.22-1.12-3.72-3.27-.94-4.73-.49-7.05,2.2-10.91.77-14.68-5.68-1.67-2.85-4.77-3.99-7.25-5.85-.76-.57-1.52-.13-1.88.61-1.79,3.79-3.4,7.65-2.16,11.96.8,2.77,1.82,3.53,5.15,2.14,4.63-1.94,9.94-4,14.53.89,1.32,1.41,3.23,1.9,5.55,1.83ZM481.77,518c.06-2.83-8.46-11.81-11.33-11.96-.7-.04-1.2.23-1.53.86-.29.55-.13.96.38,1.23,3.06,1.61.41,2.48-.53,3.34-1.67,1.52-4.07,2.75-3.78,5.31.44,3.99,2.19,7.86,5.49,9.98,2.34,1.51,4.32-1.75,6.43-2.93,1.09-.61,2.07-1.43,3.06-2.22,1.15-.91,1.72-2.15,1.81-3.61ZM291.68,77.19c-.15-12.68-23.21-34.05-34.05-31.83,1.48,2.48,3.33,4.31,5.79,5.79,8.05,4.85,16.59,9.09,20.35,18.82,1.23,3.19,4.29,5.45,7.91,7.22ZM450.78,470.52c-.62,2.11-.36,3,.86,3.35,1.98.56,1.99-1.13,2.3-2.22,4.9-17.25,9.75-34.5,14.6-51.76.2-.73.35-1.47.48-2.22.17-1.01-.27-1.76-1.19-2.12-1.17-.46-1.58.45-1.88,1.28-.44,1.18-.8,2.39-1.15,3.61-3.47,12.14-6.97,24.27-10.39,36.42-1.37,4.86-2.6,9.76-3.63,13.66ZM202.36,43.32c6.89,13.87,32.93,19.36,44.91,13.15-.2-.12-.38-.31-.58-.34-.5-.07-1.01-.11-1.51-.1-11.4.27-22.08-1.64-31.24-9.21-3.12-2.57-7-3.96-11.58-3.51ZM137.8,110.82c-.35-2.2-.71-4.18-.97-6.18-.35-2.74-1.39-3.63-3.84-1.7-4.07,3.19-8.21,6.28-12.3,9.45-1.57,1.22-2.05,2.34.49,2.94,3.47.81,6.75,2.05,9.64,4.21.63.47,1.4.94,1.98.14,2.04-2.78,4.96-5.11,4.99-8.85ZM229.89,216.03c9.5-.54,9.54-.67,11.04-7.85.53-2.54-.4-3.15-2.61-3.17-3.15-.02-6.31-.09-9.46-.22-5.23-.22-5.26-.24-5.31,4.89-.06,7.79-.39,6.55,6.33,6.34ZM157.1,247.24c-2.12-10.69-4.97-19.55-14.18-24.64-1.05-.58-2.02-2.68-3.3-.63-1.08,1.73-3.99,3.46-1.87,5.8,5.88,6.53,12.05,12.8,19.35,19.47ZM120.74,52.6c5.02-5.71,11.25-10,16.53-15.32,2.31-2.33,4.54-4.74,6.77-7.13.49-.52,1.24-1.09.74-1.91-.19-.31-.89-.45-1.34-.42-5.24.34-10.52.89-13.83,5.66-4.04,5.8-6.64,12.33-8.87,19.13ZM290.32,754.32c3.51-.8,6.22-2.65,9.06-4.26,2.18-1.24,1.8-2.32,0-3.51-2.73-1.79-5.42-3.65-8.18-5.4-1.2-.76-2.45-2.23-3.99-.74-2.32,2.25-5.03,4.19-6.42,7.26-.06.14.17.48.35.64,2.77,2.56,5.62,4.99,9.19,6.02ZM285.54,133.4c-.2-2.29-.39-5.06-.7-7.82-.31-2.67-1.49-4.81-4.16-5.83-.94-.36-2.22-.89-2.58.44-1.31,4.85-4.37,9.45-2.25,14.83.72,1.82,8.2,7.94,8.86,7.19,2.05-2.35.58-5.29.83-7.96.01-.12,0-.25,0-.85ZM244.75,301.82c-.06,2.95.95,3.72,3.26,2.21,7.69-5.05,15.37-10.14,21.3-17.35.69-.84,2.37-1.62.84-3.06-1.15-1.08-2.49-1.8-4.08-.8-.53.33-1.05.72-1.48,1.16-5.5,5.58-11.45,10.61-18.03,14.89-1.09.71-2.05,1.52-1.81,2.95ZM433.16,548.93c.22,1.39.46,3.14.8,4.87.14.73.43,1.53,1.34,1.64.95.12,1.78-.23,2.19-1.14,2.91-6.5,5-13.24,5.77-20.33.21-1.94-1.45-2.78-3.06-3.37-1.23-.45-1.98.12-2.35,1.21-1.88,5.49-4.22,10.85-4.68,17.12ZM266.48,86.24c2.51-8.91-1.3-16.45-4.56-24.92-1.54,3.88-1.65,7.18-2.24,10.37-1.42,7.64-.38,9.85,6.8,14.55ZM288.07,149.98c.47-.12.67-.12.69-.18,4.4-12.48,2.58-25.41,2.68-38.19.02-2.2-2.48-1.61-3.98-1.89-1.27-.24-1.87.46-1.81,1.73.17,3.88-.31,7.94,2.36,11.24,2.43,3,2.85,6.36,2.15,9.98-.6,3.09-1.27,6.17-1.91,9.25-.56,2.67-.72,5.34-.18,8.07ZM256.47,240.07c2.96-1.2,4.91-1.94,6.82-2.78,8.71-3.86,9.09-5.28,3.58-13.03-.07-.1-.14-.21-.2-.32-.9-1.55-1.81-1.58-2.71-.01-2.76,4.79-5.17,9.74-7.49,16.15ZM125.81,156.24c-.23-3.71.14-6.77,2.35-8.81,3.37-3.11,2.01-6.06.37-9.16-.58-1.1-1.11-2.5-2.59-2.45-1.49.05-2.45,1.2-3.16,2.44-3.21,5.65-2.26,12.44,3.02,17.97ZM137.15,141.24c4.83-2.02,8.24-8.76,7.17-13.58-.38-1.71-1.69-1.74-2.89-1.76-2.3-.04-4.68-1.33-6.88.27-.24.18-.2.97-.06,1.41,1.37,4.43,1.78,9.07,2.66,13.66ZM150.46,127.17c-2.14-.5-3.08.59-3.47,2.5-.35,1.73-.76,3.45-1.11,5.18-.38,1.88.27,2.67,2.23,2.06,4.21-1.31,8.44-2.57,12.65-3.9,1.04-.33,2.34-.6,2.15-2.17-.16-1.35-1.14-1.84-2.37-2.04-3.36-.53-6.72-1.09-10.08-1.63ZM320.26,630.78c-.74,0-1.11.52-1.4,1.07-6.41,12.3-12.16,24.91-17.21,37.83-.43,1.1-1.16,2.59.59,3.23,2.02.74,1.88-1.31,2.22-2.24,4.59-12.55,9.85-24.83,15.22-37.06.38-.87,1.13-1.74.57-2.82ZM174.78,135.64c-1.63.41-3.72.81-4.79,2.29-.98,1.35.63,2.75,1.39,3.97.73,1.16,1.66,2.21,2.6,3.21,2.65,2.83,5.98,2.73,8.82-.77,2.04-2.51-1.55-2.89-2.37-4.35-.66-1.16-1.85-2.03-2.84-2.99-.72-.7-1.49-1.36-2.81-1.36ZM429.52,598.16c5.19-12.39,9.17-25.25,13.31-38.05.34-1.06.32-2.13-.93-2.46-1.46-.39-1.56.96-1.83,1.86-3.85,12.77-7.78,25.52-10.54,38.65ZM275.91,661.8c3.61,3.29,7.98,4.49,12.14,6.13,1.17.46,2.46.96,3.34-.51,1.21-2.04,2.45-4.1,2.83-6.49.09-.6-.67-.64-1.16-.6-5.71.48-11.43.98-17.14,1.47ZM489.35,417.69c.05-1.52-.84-2.57-1.92-3.47-2.74-2.28-5.9-3.82-9.27-4.92-1.43-.46-3-.98-3.73,1.14-.67,1.94-.35,3.38,1.72,4.28,3.46,1.5,6.87,3.1,10.28,4.71,1.9.9,2.86.39,2.93-1.75ZM313.9,634.3c-.83,0-1.18.59-1.45,1.12-5.52,10.76-11.39,21.35-15.94,32.58-.37.91-1.27,2.32.42,2.86,1.64.52,1.69-1.17,2.1-2.08,4.79-10.55,9.54-21.13,14.26-31.71.38-.85,1.12-1.69.6-2.76ZM145.6,119.09c-.3-1.99-.61-4.35-1.04-6.69-.27-1.46-.83-2.59-2.32-.84-2.37,2.77-4.63,5.62-6.17,8.96-.3.66-.91,1.61-.12,2.01,2.52,1.29,5.37,1.61,8.06,1.13,2.09-.38,1.2-2.68,1.59-4.58ZM140.43,109.27c4.11-5.07,7.96-9.83,11.82-14.59-.2-.3-.41-.59-.61-.89-3.75,1.58-7.51,3.14-11.24,4.75-.73.31-1.19.99-1.17,1.8.07,2.81-.4,5.71,1.2,8.93ZM449.39,494.05c-.48,1.78.56,2.55,1.98,3.09,3.06,1.16,6.09,2.4,9.16,3.5,1.19.43,2.6,1.38,3.34-.81.61-1.79.19-2.83-1.56-3.55-3.25-1.35-6.52-2.69-9.67-4.26-2.46-1.22-3.19-.24-3.27,2.03ZM232.45,189.38c1.38-4.47,2.71-8.92.86-13.54-.4-1.01-.78-2.33-2.18-2.29-1.18.04-1.45,1.25-1.93,2.11-2.99,5.4-.24,9.58,3.24,13.72ZM278.44,148.61c1.6-.52,3.06-1.62,3.91-3.14.9-1.61-.96-2.04-1.84-2.75-1.96-1.59-4.02-3.04-6.02-4.59-1.23-.96-2.22-1.2-2.82.64-.68,2.1,4.4,9.7,6.76,9.83ZM247.04,156.26c-1.46,1.73-2.72,3.09-3.81,4.57-1.53,2.06.19,3.8.78,5.61.36,1.1,1.43.8,2.27.57,2.04-.57,2.68-2.25,2.73-4.05.07-2.15-.58-4.2-1.98-6.69ZM467.48,491.46c.09-.77-.17-1.29-.74-1.23-4.71.53-8.44-2.23-12.58-3.63-.9-.3-1.77-.45-2.18.7-.38,1.07.23,1.74,1.11,2.07,3.91,1.45,7.81,2.89,11.76,4.21,1.97.66,2.27-.96,2.62-2.12ZM397.71,648.05c.18-2.58-.47-3.97-2.44-4.32-2.01-.36-4.48-.57-5.57,1.14-.85,1.34,1.54,2.18,2.43,3.28.39.48.9.88,1.42,1.24.98.69,1.85,2.22,3.16,1.43,1.07-.65.93-2.23.99-2.76ZM168.67,126.28c-1.86,1.06-2.97,2.29-2.32,4.35.56,1.76.25,4.46,3.04,4.26,1.49-.1,4.14-.83,3.5-2.88-.68-2.17-2.24-4.29-4.22-5.74ZM157.55,35.49c-2.31-3.02-4.21-4.92-6.94-5.76-2.51-.78-3.59,1.24-4.13,2.86-.73,2.17,1.58,1.83,2.68,2.03,2.44.44,4.94.54,8.39.88ZM142.21,65.15c4.98-3.69,10.29-7.06,13.5-13.8-5.86,4.16-10.77,7.91-13.5,13.8ZM133.54,162.68c.37-4.43.79-8.05.24-11.93-4.55,3.77-4.66,6.34-.24,11.93ZM286.37,155.78c.24-2.9.1-5.63-1.15-8.35-5.37,3.95-5.13,5.51,1.15,8.35ZM382.13,637.22c.06-2.76-1.05-4.57-2.91-4.47-1.54.08-3.3.16-4,1.98-.19.49,5.22,4.47,5.88,4.41,1.36-.13.9-1.22,1.03-1.91ZM410.29,657.78c-.08-1.55-.14-3.16-2.11-2.97-1.6.16-3.87.83-3.69,2.48.2,1.76,2.39,3.11,4.15,3.39,2.1.33,1.17-1.93,1.64-2.9ZM119.76,137.86c1.48-1.4,2.46-2.35,3.47-3.28.61-.56,1.69-.98.81-2.04-.9-1.08-2.39-2.4-3.46-1.63-2.25,1.65-1.25,4.16-.82,6.95ZM363.77,624.35c-.64.3-2.42.03-2.15,1.13.51,2.04,2.57,2.96,4.45,3.59,1.31.44,1.28-.84,1.27-1.66-.01-2.18-1.23-3.13-3.57-3.06ZM206.23,126.24c-1.82-.79-3.48-2.78-5.43-1.43-.88.61-1.18,3.25-.2,3.75,2.15,1.1,3.82-.9,5.63-2.32Z"/>
  <path class="cls-1" d="M207.13,113.7c-5.76-.83-11.65-1.42-17.58-1.55-5.58-.12-10.78.8-15.36,4.23-.92.69-2,1.91-3.3.58-1.15-1.18-.91-2.52-.08-3.81,3.64-5.66,7.99-9.96,15.49-9.68,5.41.21,10.84-.19,16.26-.32,1.13-.03,2.28-.22,3.4-.12,1.65.15,3.62-2.76,4.88.14,1.26,2.9,1.74,6.19.82,9.24-.56,1.86-2.86.95-4.52,1.29Z"/>
</svg>